<svg xmlns="http://www.w3.org/2000/svg" width="400" height="600" viewBox="0 0 400 600"><rect width="100%" height="100%" fill="#DDDDDD"/><path fill="#999999" d="M95.632 306.395h-7.31v13.41h-7.41v-36.97h14.72q6.37 0 10.03 3.25 3.66 3.25 3.66 8.56 0 5.3-3.66 8.53-3.66 3.22-10.03 3.22Zm-7.31-17.85v12.14h7.31q3.1 0 4.7-1.69t1.6-4.3q0-2.67-1.59-4.41-1.59-1.74-4.71-1.74h-7.31Zm41.08 3.58-.79 6.58-2.71-.08q-1.65 0-2.72.69-1.07.69-1.62 1.93v18.56h-7.39v-27.47h6.88l.33 4.06q.96-2.16 2.5-3.36 1.53-1.21 3.54-1.21.56 0 1.03.09t.95.21Zm1.83 14.22v-.53q0-6.14 3.43-10.07 3.42-3.92 9.49-3.92 6.1 0 9.55 3.91 3.45 3.91 3.45 10.08v.53q0 6.2-3.44 10.1-3.44 3.89-9.51 3.89-6.09 0-9.53-3.89-3.44-3.9-3.44-10.1Zm7.39-.53v.53q0 3.76 1.32 6.03 1.32 2.28 4.26 2.28 2.87 0 4.21-2.29 1.33-2.28 1.33-6.02v-.53q0-3.66-1.35-5.97-1.34-2.31-4.24-2.31-2.87 0-4.2 2.33-1.33 2.32-1.33 5.95Zm32.45 13.99h-7.42v-22.27h-4.08v-5.2h4.08v-3.05q0-4.62 2.67-7.12t7.49-2.5q.94 0 1.92.14.97.14 2.14.39l-.63 5.51q-.61-.1-1.18-.18-.57-.07-1.34-.07-1.8 0-2.73.99-.92.99-.92 2.84v3.05h5.46v5.2h-5.46v22.27Zm17.03-27.47v27.47h-7.41v-27.47h7.41Zm0-12.14v5.56h-7.41v-5.56h7.41Zm13.89 0v39.61h-7.41v-39.61h7.41Zm18.26 40.14q-5.94 0-9.5-3.81-3.55-3.8-3.55-9.67v-1.01q0-6.12 3.36-10.08 3.37-3.97 9.03-3.94 5.56 0 8.63 3.35 3.07 3.35 3.07 9.07v4.03h-16.4l-.05.15q.2 2.72 1.82 4.47 1.61 1.76 4.38 1.76 2.46 0 4.08-.5 1.63-.49 3.56-1.56l2 4.57q-1.67 1.37-4.39 2.27-2.71.9-6.04.9Zm-.66-22.8q-2.06 0-3.25 1.58-1.19 1.57-1.47 4.14l.07.12h9.09v-.66q0-2.36-1.1-3.77-1.11-1.41-3.34-1.41Zm44.31 8.86h-7.32v13.41h-7.41v-36.97h14.73q6.37 0 10.02 3.25 3.66 3.25 3.66 8.56 0 5.3-3.66 8.53-3.65 3.22-10.02 3.22Zm-7.32-17.85v12.14h7.32q3.09 0 4.69-1.69 1.6-1.69 1.6-4.3 0-2.67-1.58-4.41-1.59-1.74-4.71-1.74h-7.32Zm33.65 3.79v27.47h-7.42v-27.47h7.42Zm0-12.14v5.56h-7.42v-5.56h7.42Zm17.62 34.46q1.98 0 3.17-1.16 1.19-1.15 1.19-3.08h6.73l.08.15q.1 4.16-3.14 6.97-3.23 2.8-8.03 2.8-6.15 0-9.47-3.88-3.33-3.89-3.33-9.98v-.76q0-6.07 3.31-9.98 3.32-3.91 9.46-3.91 5.08 0 8.19 2.89 3.11 2.9 3.01 7.62l-.05.15h-6.76q0-2.13-1.16-3.54-1.17-1.41-3.23-1.41-2.94 0-4.15 2.29-1.21 2.28-1.21 5.89v.76q0 3.68 1.21 5.93 1.21 2.25 4.18 2.25Z"/></svg>